<svg width="340" height="110" xmlns="http://www.w3.org/2000/svg" viewBox="0 0 340 110"><path d="M22 60 C22 26 318 20 318 48 C318 74 22 80 22 60Z" fill="#C49012" stroke="#8B6000" stroke-width="2.5"/><path d="M24 57 C24 26 316 22 316 46 C316 70 24 74 24 57Z" fill="#D4A820"/><path d="M28 52 C28 24 312 24 312 44" fill="none" stroke="#8B6000" stroke-width="1.5" opacity="0.3"/><path d="M22 60 C6 54 6 66 22 63 C22 61 22 60 22 60Z" fill="#B07810"/><path d="M318 48 C332 44 334 56 318 53 C318 50 318 48 318 48Z" fill="#B07810"/><path d="M78 28 Q100 42 78 56" fill="none" stroke="#8B6000" stroke-width="2.5" opacity="0.75"/><path d="M120 26 Q142 40 120 54" fill="none" stroke="#8B6000" stroke-width="2.5" opacity="0.75"/><path d="M162 24 Q184 38 162 52" fill="none" stroke="#8B6000" stroke-width="2.5" opacity="0.75"/><path d="M204 25 Q226 39 204 53" fill="none" stroke="#8B6000" stroke-width="2.5" opacity="0.75"/><path d="M246 26 Q268 40 246 54" fill="none" stroke="#8B6000" stroke-width="2.5" opacity="0.75"/></svg>