<svg width="130" height="310" xmlns="http://www.w3.org/2000/svg" viewBox="0 0 130 310"><rect x="52" y="8" width="26" height="40" rx="6" fill="#2d5a1b" stroke="#1d4010" stroke-width="1.5"/><path d="M40 48 C32 70 30 96 34 122 L96 122 C100 96 98 70 90 48Z" fill="#2d5a1b" stroke="#1d4010" stroke-width="1.5"/><rect x="34" y="118" width="62" height="162" rx="6" fill="#2d5a1b" stroke="#1d4010" stroke-width="1.5"/><path d="M34 274 C38 292 92 292 96 274 L96 280 C92 298 38 298 34 280Z" fill="#1d4010"/><rect x="44" y="148" width="42" height="56" rx="4" fill="#f5e4b8" stroke="#8B6000" stroke-width="1.5"/><text x="65" y="166" text-anchor="middle" fill="#8B6000" font-size="7.5" font-weight="bold" font-family="Georgia,serif" letter-spacing="0.5">CHAMPAGNE</text><text x="65" y="178" text-anchor="middle" fill="#8B6000" font-size="6" font-family="Georgia,serif">FRANCE</text><line x1="44" y1="186" x2="86" y2="186" stroke="#8B6000" stroke-width="1"/><rect x="44" y="134" width="42" height="16" rx="3" fill="#FFD700" stroke="#B8860B" stroke-width="1"/><text x="65" y="145" text-anchor="middle" fill="#8B4500" font-size="6.5" font-weight="bold">CUVÉE PRESTIGE</text><circle cx="85" cy="256" r="4.5" fill="rgba(255,255,255,0.2)"/><circle cx="52" cy="234" r="3.5" fill="rgba(255,255,255,0.18)"/><circle cx="70" cy="210" r="3" fill="rgba(255,255,255,0.22)"/><circle cx="45" cy="188" r="2.5" fill="rgba(255,255,255,0.18)"/></svg>