<svg width="280" height="200" xmlns="http://www.w3.org/2000/svg" viewBox="0 0 280 200"><path d="M25 155 C40 65 145 18 225 72 C180 38 82 60 62 142Z" fill="#C49012" stroke="#8B6000" stroke-width="2"/><path d="M62 142 C78 55 175 32 228 75 C192 42 96 68 76 142Z" fill="#D4A520"/><path d="M76 142 C90 58 188 38 230 78 C198 48 104 74 88 142Z" fill="#E8B84B"/><path d="M88 142 C100 62 200 44 232 82 C204 54 112 80 98 142Z" fill="#F0C868"/><path d="M25 155 C10 148 8 162 25 160 C30 158 28 155 25 155Z" fill="#B08010"/><path d="M225 72 C238 66 242 80 225 77 C222 75 224 72 225 72Z" fill="#B08010"/><path d="M55 128 Q100 110 148 120" fill="none" stroke="#8B6000" stroke-width="2.5" opacity="0.55"/><path d="M68 115 Q114 96 162 107" fill="none" stroke="#8B6000" stroke-width="2" opacity="0.4"/><path d="M80 102 Q126 84 174 94" fill="none" stroke="#8B6000" stroke-width="1.5" opacity="0.3"/></svg>