<svg width="200" height="290" xmlns="http://www.w3.org/2000/svg" viewBox="0 0 200 290"><line x1="100" y1="5" x2="97" y2="58" stroke="#4a3200" stroke-width="5" stroke-linecap="round"/><rect x="81" y="52" width="38" height="14" rx="3" fill="#4a3200"/><rect x="76" y="62" width="48" height="5" rx="2" fill="#6a4a00"/><line x1="81" y1="58" x2="52" y2="145" stroke="#4a3200" stroke-width="5.5"/><line x1="119" y1="58" x2="148" y2="145" stroke="#4a3200" stroke-width="5.5"/><line x1="76" y1="63" x2="48" y2="145" stroke="#6a4a00" stroke-width="3"/><line x1="124" y1="63" x2="152" y2="145" stroke="#6a4a00" stroke-width="3"/><rect x="44" y="138" width="112" height="17" rx="3" fill="#4a3200"/><rect x="38" y="151" width="124" height="6" rx="2" fill="#6a4a00"/><line x1="50" y1="145" x2="15" y2="255" stroke="#4a3200" stroke-width="7"/><line x1="150" y1="145" x2="185" y2="255" stroke="#4a3200" stroke-width="7"/><line x1="46" y1="151" x2="13" y2="257" stroke="#6a4a00" stroke-width="3.5"/><line x1="154" y1="151" x2="187" y2="257" stroke="#6a4a00" stroke-width="3.5"/><rect x="10" y="250" width="180" height="18" rx="4" fill="#4a3200"/><line x1="90" y1="145" x2="68" y2="254" stroke="#6a4a00" stroke-width="3" opacity="0.65"/><line x1="110" y1="145" x2="132" y2="254" stroke="#6a4a00" stroke-width="3" opacity="0.65"/><line x1="78" y1="100" x2="122" y2="100" stroke="#6a4a00" stroke-width="2.5" opacity="0.5"/><line x1="65" y1="122" x2="135" y2="122" stroke="#6a4a00" stroke-width="2.5" opacity="0.5"/></svg>