<svg width="180" height="240" xmlns="http://www.w3.org/2000/svg" viewBox="0 0 180 240"><defs><linearGradient id="gld" x1="0" y1="0" x2="0.5" y2="1"><stop offset="0" stop-color="#FFE55C"/><stop offset="0.5" stop-color="#FFD700"/><stop offset="1" stop-color="#B8860B"/></linearGradient></defs><path d="M90 10 C66 28 58 58 90 90 C122 58 114 28 90 10Z" fill="url(#gld)" stroke="#8B6000" stroke-width="2"/><path d="M90 90 C62 72 34 76 25 98 C18 118 32 132 52 124 C66 118 76 102 90 90Z" fill="url(#gld)" stroke="#8B6000" stroke-width="2"/><path d="M90 90 C118 72 146 76 155 98 C162 118 148 132 128 124 C114 118 104 102 90 90Z" fill="url(#gld)" stroke="#8B6000" stroke-width="2"/><rect x="68" y="124" width="44" height="18" rx="5" fill="url(#gld)" stroke="#8B6000" stroke-width="2"/><path d="M72 142 Q90 158 108 142 L108 154 Q90 168 72 154Z" fill="url(#gld)" stroke="#8B6000" stroke-width="2"/><circle cx="90" cy="90" r="10" fill="#8B6000"/><circle cx="90" cy="90" r="6" fill="#FFD700"/><path d="M90 12 C82 30 80 58 90 88 C100 58 98 30 90 12Z" fill="#FFF5B0" opacity="0.5"/></svg>