<svg width="280" height="130" xmlns="http://www.w3.org/2000/svg" viewBox="0 0 280 130"><path d="M140 65 C122 30 72 15 35 38 C8 55 5 84 30 90 C58 97 95 74 112 64" fill="#1a0f0a" stroke="#000" stroke-width="1.5"/><path d="M140 65 C158 30 208 15 245 38 C272 55 275 84 250 90 C222 97 185 74 168 64" fill="#1a0f0a" stroke="#000" stroke-width="1.5"/><path d="M126 65 C130 58 140 57 150 58 C140 68 130 68 126 65Z" fill="#2a1810"/><path d="M35 38 C20 35 10 50 8 65" fill="none" stroke="#1a0f0a" stroke-width="2.5"/><path d="M245 38 C260 35 270 50 272 65" fill="none" stroke="#1a0f0a" stroke-width="2.5"/></svg>