<svg width="260" height="180" xmlns="http://www.w3.org/2000/svg" viewBox="0 0 260 180"><path d="M130 25 C65 25 20 65 20 105 C20 135 50 155 90 160 L170 160 C210 155 240 135 240 105 C240 65 195 25 130 25Z" fill="#CC2200" stroke="#991800" stroke-width="2"/><path d="M50 90 C50 55 90 30 130 30 C170 30 210 55 210 90" fill="#BB1800" opacity="0.6"/><ellipse cx="130" cy="158" rx="65" ry="12" fill="#AA1500" opacity="0.5"/><circle cx="175" cy="70" r="9" fill="#AA1500"/><ellipse cx="175" cy="70" rx="7" ry="3.5" fill="#880F00" transform="rotate(20 175 70)"/><rect x="114" y="138" width="32" height="10" rx="5" fill="#333"/><path d="M60 100 Q130 55 200 100" fill="none" stroke="#881100" stroke-width="2" opacity="0.45"/><path d="M55 118 Q130 78 205 118" fill="none" stroke="#881100" stroke-width="1.5" opacity="0.3"/></svg>