<svg width="320" height="320" xmlns="http://www.w3.org/2000/svg" viewBox="0 0 320 320"><rect x="4" y="4" width="312" height="312" fill="none" stroke="#8B6000" stroke-width="8"/><rect x="14" y="14" width="292" height="292" fill="none" stroke="#FFD700" stroke-width="4"/><rect x="20" y="20" width="280" height="280" fill="none" stroke="#8B6000" stroke-width="2"/><path d="M160 4 L170 22 L160 20 L150 22 Z" fill="#FFD700"/><path d="M160 316 L170 298 L160 300 L150 298 Z" fill="#FFD700"/><path d="M4 160 L22 150 L20 160 L22 170 Z" fill="#FFD700"/><path d="M316 160 L298 150 L300 160 L298 170 Z" fill="#FFD700"/><circle cx="22" cy="22" r="9" fill="#FFD700" stroke="#8B6000" stroke-width="2"/><circle cx="298" cy="22" r="9" fill="#FFD700" stroke="#8B6000" stroke-width="2"/><circle cx="22" cy="298" r="9" fill="#FFD700" stroke="#8B6000" stroke-width="2"/><circle cx="298" cy="298" r="9" fill="#FFD700" stroke="#8B6000" stroke-width="2"/><text x="160" y="33" text-anchor="middle" fill="#FFD700" font-family="Georgia,serif" font-size="12" font-weight="bold" letter-spacing="2">✦ LA GRANDE ARMÉE ✦</text><text x="160" y="307" text-anchor="middle" fill="#FFD700" font-family="Georgia,serif" font-size="10" letter-spacing="2">EMPIRE FRANÇAIS · 1804</text><text x="12" y="165" text-anchor="middle" fill="#FFD700" font-family="Georgia,serif" font-size="9" transform="rotate(-90 12 165)" letter-spacing="1">NAPOLEON BONAPARTE</text><text x="308" y="165" text-anchor="middle" fill="#FFD700" font-family="Georgia,serif" font-size="9" transform="rotate(90 308 165)" letter-spacing="1">NAPOLEON BONAPARTE</text><line x1="55" y1="12" x2="85" y2="12" stroke="#FFD700" stroke-width="2" opacity="0.7"/><line x1="105" y1="12" x2="135" y2="12" stroke="#FFD700" stroke-width="2" opacity="0.7"/><line x1="185" y1="12" x2="215" y2="12" stroke="#FFD700" stroke-width="2" opacity="0.7"/><line x1="235" y1="12" x2="265" y2="12" stroke="#FFD700" stroke-width="2" opacity="0.7"/><line x1="55" y1="308" x2="85" y2="308" stroke="#FFD700" stroke-width="2" opacity="0.7"/><line x1="105" y1="308" x2="135" y2="308" stroke="#FFD700" stroke-width="2" opacity="0.7"/><line x1="185" y1="308" x2="215" y2="308" stroke="#FFD700" stroke-width="2" opacity="0.7"/><line x1="235" y1="308" x2="265" y2="308" stroke="#FFD700" stroke-width="2" opacity="0.7"/></svg>