<svg width="280" height="240" xmlns="http://www.w3.org/2000/svg" viewBox="0 0 280 240"><path d="M140 32 C82 32 30 65 26 115 C22 160 44 192 72 204 C92 212 114 210 140 210 C166 210 188 212 208 204 C236 192 258 160 254 115 C250 65 198 32 140 32Z" fill="#f2ede0" stroke="#c8b07a" stroke-width="2.5"/><path d="M50 85 C36 62 24 82 22 115 C28 88 40 78 50 85Z" fill="#e6e0cc"/><path d="M230 85 C244 62 256 82 258 115 C252 88 240 78 230 85Z" fill="#e6e0cc"/><path d="M60 55 C46 38 36 58 34 80 C42 60 52 52 60 55Z" fill="#e6e0cc"/><path d="M220 55 C234 38 244 58 246 80 C238 60 228 52 220 55Z" fill="#e6e0cc"/><path d="M90 34 C76 18 68 36 66 58 C72 40 82 34 90 34Z" fill="#ece5d0"/><path d="M190 34 C204 18 212 36 214 58 C208 40 198 34 190 34Z" fill="#ece5d0"/><path d="M26 108 C24 132 26 155 38 170" stroke="#c8b07a" stroke-width="4" fill="none"/><path d="M38 108 C34 132 34 156 46 172" stroke="#c8b07a" stroke-width="2.5" fill="none"/><path d="M254 108 C256 132 254 155 242 170" stroke="#c8b07a" stroke-width="4" fill="none"/><path d="M242 108 C246 132 246 156 234 172" stroke="#c8b07a" stroke-width="2.5" fill="none"/><ellipse cx="140" cy="32" rx="32" ry="13" fill="#1a1050"/><rect x="124" y="23" width="32" height="10" rx="5" fill="#2a2060"/></svg>