<svg width="260" height="210" xmlns="http://www.w3.org/2000/svg" viewBox="0 0 260 210"><defs><linearGradient id="g1" x1="0" y1="0" x2="0" y2="1"><stop offset="0" stop-color="#FFE55C"/><stop offset="1" stop-color="#B8860B"/></linearGradient></defs><path d="M28 125 L28 58 L72 96 L130 15 L188 96 L232 58 L232 125 Z" fill="url(#g1)" stroke="#8B6000" stroke-width="2.5"/><rect x="22" y="122" width="216" height="50" rx="7" fill="url(#g1)" stroke="#8B6000" stroke-width="2.5"/><circle cx="130" cy="15" r="13" fill="#CC0000" stroke="#800000" stroke-width="2"/><circle cx="72" cy="96" r="10" fill="#003399" stroke="#001566" stroke-width="2"/><circle cx="188" cy="96" r="10" fill="#003399" stroke="#001566" stroke-width="2"/><circle cx="48" cy="140" r="8" fill="#CC0000"/><circle cx="88" cy="140" r="8" fill="#CC0000"/><circle cx="130" cy="142" r="9" fill="#CC0000"/><circle cx="172" cy="140" r="8" fill="#CC0000"/><circle cx="212" cy="140" r="8" fill="#CC0000"/><line x1="22" y1="122" x2="238" y2="122" stroke="#8B6000" stroke-width="1.5"/><rect x="22" y="164" width="216" height="14" rx="5" fill="#f0f0f0" stroke="#8B6000" stroke-width="1.5"/><circle cx="50" cy="171" r="5.5" fill="#222"/><circle cx="86" cy="171" r="5.5" fill="#222"/><circle cx="122" cy="171" r="5.5" fill="#222"/><circle cx="158" cy="171" r="5.5" fill="#222"/><circle cx="194" cy="171" r="5.5" fill="#222"/></svg>