<svg width="320" height="320" xmlns="http://www.w3.org/2000/svg" viewBox="0 0 320 320"><rect x="4" y="4" width="312" height="312" fill="none" stroke="#8B6000" stroke-width="14"/><rect x="16" y="16" width="288" height="288" fill="none" stroke="#FFD700" stroke-width="5"/><rect x="25" y="25" width="270" height="270" fill="none" stroke="#8B6000" stroke-width="3"/><rect x="32" y="32" width="256" height="256" fill="none" stroke="#c9a84c" stroke-width="1.5"/><circle cx="19" cy="19" r="13" fill="#8B6000"/><circle cx="301" cy="19" r="13" fill="#8B6000"/><circle cx="19" cy="301" r="13" fill="#8B6000"/><circle cx="301" cy="301" r="13" fill="#8B6000"/><circle cx="19" cy="19" r="7" fill="#FFD700"/><circle cx="301" cy="19" r="7" fill="#FFD700"/><circle cx="19" cy="301" r="7" fill="#FFD700"/><circle cx="301" cy="301" r="7" fill="#FFD700"/><line x1="55" y1="11" x2="90" y2="11" stroke="#FFD700" stroke-width="3"/><line x1="110" y1="11" x2="145" y2="11" stroke="#FFD700" stroke-width="3"/><line x1="175" y1="11" x2="210" y2="11" stroke="#FFD700" stroke-width="3"/><line x1="230" y1="11" x2="265" y2="11" stroke="#FFD700" stroke-width="3"/><line x1="55" y1="309" x2="90" y2="309" stroke="#FFD700" stroke-width="3"/><line x1="110" y1="309" x2="145" y2="309" stroke="#FFD700" stroke-width="3"/><line x1="175" y1="309" x2="210" y2="309" stroke="#FFD700" stroke-width="3"/><line x1="230" y1="309" x2="265" y2="309" stroke="#FFD700" stroke-width="3"/><text x="160" y="26" text-anchor="middle" fill="#FFD700" font-family="Georgia,serif" font-size="11" font-weight="bold" letter-spacing="2">✦ MUSÉE DU LOUVRE ✦</text><text x="160" y="304" text-anchor="middle" fill="#FFD700" font-family="Georgia,serif" font-size="10" letter-spacing="1">La Joconde · Léonard de Vinci · Paris</text><text x="13" y="165" text-anchor="middle" fill="#FFD700" font-family="Georgia,serif" font-size="8" transform="rotate(-90 13 165)" letter-spacing="1">CHEF-D'ŒUVRE UNIVERSEL</text><text x="307" y="165" text-anchor="middle" fill="#FFD700" font-family="Georgia,serif" font-size="8" transform="rotate(90 307 165)" letter-spacing="1">CHEF-D'ŒUVRE UNIVERSEL</text></svg>