<svg width="240" height="180" xmlns="http://www.w3.org/2000/svg" viewBox="0 0 240 180"><path d="M120 18 C80 18 28 48 18 98 C13 122 22 142 52 148 C76 154 98 148 120 144 C142 148 164 154 188 148 C218 142 227 122 222 98 C212 48 160 18 120 18Z" fill="#1a1050" stroke="#c9a84c" stroke-width="3.5"/><ellipse cx="120" cy="146" rx="92" ry="19" fill="#231468" stroke="#c9a84c" stroke-width="2"/><circle cx="178" cy="92" r="15" fill="#c9a84c"/><circle cx="178" cy="92" r="10" fill="#0055A4"/><circle cx="178" cy="92" r="5.5" fill="#ED2939"/><line x1="170" y1="84" x2="186" y2="100" stroke="#c9a84c" stroke-width="1.5" opacity="0.6"/><line x1="186" y1="84" x2="170" y2="100" stroke="#c9a84c" stroke-width="1.5" opacity="0.6"/><text x="102" y="108" text-anchor="middle" fill="#c9a84c" font-family="Georgia,serif" font-size="42" font-style="italic" font-weight="bold">N</text></svg>