<svg width="320" height="320" xmlns="http://www.w3.org/2000/svg" viewBox="0 0 320 320"><rect x="4" y="4" width="312" height="312" fill="none" stroke="#8B6000" stroke-width="6"/><rect x="13" y="13" width="294" height="294" fill="none" stroke="#c9a84c" stroke-width="3"/><rect x="19" y="19" width="282" height="282" fill="none" stroke="#8B6000" stroke-width="1.5"/><circle cx="22" cy="22" r="8" fill="#c9a84c"/><circle cx="298" cy="22" r="8" fill="#c9a84c"/><circle cx="22" cy="298" r="8" fill="#c9a84c"/><circle cx="298" cy="298" r="8" fill="#c9a84c"/><text x="160" y="30" text-anchor="middle" fill="#8B6000" font-family="Georgia,serif" font-size="13" font-weight="bold" letter-spacing="2">☕ CAFÉ DE PARIS ☕</text><text x="160" y="308" text-anchor="middle" fill="#8B6000" font-family="Georgia,serif" font-size="11" letter-spacing="1">Bienvenue · 🥐 · 🗼 · Bonjour</text><text x="14" y="165" text-anchor="middle" fill="#8B6000" font-family="Georgia,serif" font-size="9" transform="rotate(-90 14 165)" letter-spacing="1">LA BELLE VIE PARISIENNE</text><text x="306" y="165" text-anchor="middle" fill="#8B6000" font-family="Georgia,serif" font-size="9" transform="rotate(90 306 165)" letter-spacing="1">LA BELLE VIE PARISIENNE</text><path d="M40 14 C45 20 50 18 55 14" fill="none" stroke="#c9a84c" stroke-width="1.5" opacity="0.7"/><path d="M65 14 C70 20 75 18 80 14" fill="none" stroke="#c9a84c" stroke-width="1.5" opacity="0.7"/><path d="M90 14 C95 20 100 18 105 14" fill="none" stroke="#c9a84c" stroke-width="1.5" opacity="0.7"/></svg>