<svg width="260" height="280" xmlns="http://www.w3.org/2000/svg" viewBox="0 0 260 280"><path d="M85 28 L32 82 L22 168 L62 178 L62 260 L198 260 L198 178 L238 168 L228 82 L175 28 Z" fill="#FFD700" stroke="#D4A000" stroke-width="2.5"/><path d="M85 28 L65 52 L42 52 L32 82 L22 168 L62 178" fill="rgba(0,0,0,0.1)"/><path d="M175 28 L195 52 L218 52 L228 82 L238 168 L198 178" fill="rgba(0,0,0,0.1)"/><rect x="72" y="108" width="116" height="62" rx="4" fill="white" opacity="0.92"/><text x="130" y="126" text-anchor="middle" fill="#D4A000" font-size="9" font-weight="bold" font-family="Arial,sans-serif" letter-spacing="0.5">TOUR DE FRANCE</text><text x="130" y="142" text-anchor="middle" fill="#002395" font-size="16" font-weight="bold" font-family="Arial,sans-serif">LEADER</text><rect x="62" y="168" width="136" height="10" fill="#002395"/><rect x="72" y="26" width="116" height="22" rx="6" fill="#D4A000" stroke="#B08000" stroke-width="2"/><text x="130" y="41" text-anchor="middle" fill="white" font-size="10" font-weight="bold" font-family="Arial,sans-serif" letter-spacing="1">MAILLOT JAUNE</text></svg>