<svg width="320" height="170" xmlns="http://www.w3.org/2000/svg" viewBox="0 0 320 170"><rect x="85" y="45" width="150" height="100" fill="#f5e4b8" stroke="#8B6000" stroke-width="2.5"/><rect x="0" y="65" width="87" height="80" fill="#f5e4b8" stroke="#8B6000" stroke-width="2"/><rect x="233" y="65" width="87" height="80" fill="#f5e4b8" stroke="#8B6000" stroke-width="2"/><rect x="85" y="18" width="150" height="30" fill="#e8d090" stroke="#8B6000" stroke-width="2"/><path d="M125 18 L160 4 L195 18" fill="#e8d090" stroke="#8B6000" stroke-width="2"/><circle cx="160" cy="4" r="5.5" fill="#FFD700"/><line x1="85" y1="18" x2="235" y2="18" stroke="#8B6000" stroke-width="2"/><rect x="140" y="95" width="40" height="50" fill="rgba(139,96,0,0.25)"/><rect x="95" y="75" width="26" height="38" rx="2" fill="none" stroke="#8B6000" stroke-width="1.5"/><rect x="130" y="75" width="22" height="38" rx="2" fill="none" stroke="#8B6000" stroke-width="1.5"/><rect x="168" y="75" width="22" height="38" rx="2" fill="none" stroke="#8B6000" stroke-width="1.5"/><rect x="199" y="75" width="26" height="38" rx="2" fill="none" stroke="#8B6000" stroke-width="1.5"/><rect x="10" y="80" width="22" height="35" rx="2" fill="none" stroke="#8B6000" stroke-width="1.5"/><rect x="245" y="80" width="22" height="35" rx="2" fill="none" stroke="#8B6000" stroke-width="1.5"/><text x="160" y="37" text-anchor="middle" fill="#8B6000" font-family="Georgia,serif" font-size="12" font-weight="bold" letter-spacing="2">VERSAILLES</text><rect x="0" y="144" width="320" height="26" fill="#2d5a1b"/><path d="M0 144 Q80 130 160 138 Q240 130 320 144" fill="#3d7a2b"/></svg>