<svg width="160" height="280" xmlns="http://www.w3.org/2000/svg" viewBox="0 0 160 280"><path d="M45 18 L115 18 L120 85 C126 130 120 165 80 182 C40 165 34 130 40 85 Z" fill="rgba(160,20,20,0.12)" stroke="#8B0000" stroke-width="2.5"/><path d="M47 20 L113 20 L118 82 C124 126 118 160 80 176 C42 160 36 126 42 82 Z" fill="#CC1122" opacity="0.72"/><path d="M56 28 L104 28 L108 78 C112 108 108 135 80 148 C52 135 48 108 52 78 Z" fill="#DD2233" opacity="0.28"/><path d="M58 30 Q75 25 92 30" fill="none" stroke="rgba(255,255,255,0.55)" stroke-width="2.5" stroke-linecap="round"/><path d="M54 55 Q68 48 82 52" fill="none" stroke="rgba(255,255,255,0.3)" stroke-width="2" stroke-linecap="round"/><rect x="75" y="182" width="10" height="66" fill="#8B0000" stroke="#6B0000" stroke-width="1"/><ellipse cx="80" cy="250" rx="30" ry="8" fill="#8B0000" stroke="#6B0000" stroke-width="1.5"/><text x="80" y="118" text-anchor="middle" fill="rgba(255,255,255,0.55)" font-size="12" font-family="Georgia,serif" font-style="italic">Bordeaux</text></svg>